# xmcd
#
# Track frame offsets: 
#        150
#        19261
#        41878
#        64429
#        84648
#        105790
#        122621
#        142671
#        165065
#
# Disc length: 2512 seconds
#
# Revision: 0
# Processed by: cddbd v1.5.2PL0 Copyright (c) Steve Scherf et al.
# Submitted via: ExactAudioCopy v1.3
#
DISCID=6709ce09
DTITLE=Scott White - Success... Never Ends
DYEAR=1988
DGENRE=Funk
TTITLE0=Hypnotized
TTITLE1=Never Ends
TTITLE2=Love Emergency
TTITLE3=Success
TTITLE4=I Don't Understand It
TTITLE5=Friends
TTITLE6=Time Has A Hold On Love
TTITLE7=Let Me Be
TTITLE8=Been Gone Too Long (Bonus Track)
EXTD=
EXTT0=
EXTT1=
EXTT2=
EXTT3=
EXTT4=
EXTT5=
EXTT6=
EXTT7=
EXTT8=
PLAYORDER=
